<svg id="Слой_1" data-name="Слой 1" xmlns="http://www.w3.org/2000/svg" viewBox="0 0 106.27 42.33"><defs><style>.cls-1{fill:#008bde;}.cls-2{fill:#fc0;}</style></defs><title>logo</title><path class="cls-1" d="M227.09,228.18l1.27-1.81a4.22,4.22,0,0,0,3,1.23c0.83,0,1.33-.32,1.33-0.77,0-1.27-5.29-.25-5.29-3.85,0-1.57,1.33-3,3.73-3a5.7,5.7,0,0,1,3.8,1.3L233.59,223a4.4,4.4,0,0,0-2.73-1c-0.7,0-1,.28-1,0.67,0,1.19,5.28.32,5.28,3.8,0,1.88-1.39,3.12-3.89,3.12A5.72,5.72,0,0,1,227.09,228.18Z" transform="translate(-218.9 -218.17)"/><path class="cls-1" d="M238.33,229.5v-7.24h-2.62v-2.1h7.63v2.1h-2.61v7.24h-2.41Z" transform="translate(-218.9 -218.17)"/><path class="cls-1" d="M244.49,225.72v-5.56h2.45v5.48a2,2,0,0,0,3.94,0v-5.48h2.44v5.55c0,2.33-1.41,4-4.4,4S244.49,228,244.49,225.72Z" transform="translate(-218.9 -218.17)"/><path class="cls-1" d="M255,229.5v-9.34h3.92c2.94,0,5.06,1.77,5.06,4.66s-2.12,4.68-5,4.68H255Zm6.51-4.68a2.39,2.39,0,0,0-2.58-2.56H257.4v5.14h1.51A2.48,2.48,0,0,0,261.51,224.82Z" transform="translate(-218.9 -218.17)"/><path class="cls-1" d="M267.72,229.5v-3.77l-3.54-5.58h2.72l2,3.45,2-3.45h2.73l-3.53,5.58v3.77h-2.41Z" transform="translate(-218.9 -218.17)"/><path class="cls-1" d="M250.39,243.92l-0.46-1.34h-3.68l-0.46,1.34h-2.73l3.52-9.34h3l3.53,9.34h-2.73Zm-2.31-7-1.19,3.52h2.38Z" transform="translate(-218.9 -218.17)"/><path class="cls-1" d="M260.16,243.92l-4-5.41v5.41H253.8v-9.34h2.48l3.78,5.14v-5.14h2.42v9.34h-2.33Z" transform="translate(-218.9 -218.17)"/><path class="cls-1" d="M264.16,243.92v-9.34h3.92c2.94,0,5.06,1.77,5.06,4.66s-2.12,4.68-5,4.68h-3.94Zm6.51-4.68a2.39,2.39,0,0,0-2.58-2.56h-1.53v5.14h1.51A2.48,2.48,0,0,0,270.68,239.24Z" transform="translate(-218.9 -218.17)"/><path class="cls-1" d="M218.9,257.66l1-1.83a2.1,2.1,0,0,0,1.34.55,1.18,1.18,0,0,0,1.25-1.27V249h2.41v6.14c0,2.31-1.4,3.38-3.45,3.38A3.8,3.8,0,0,1,218.9,257.66Z" transform="translate(-218.9 -218.17)"/><path class="cls-1" d="M226.11,253.67a5,5,0,1,1,5,4.83A4.76,4.76,0,0,1,226.11,253.67Zm7.54,0a2.55,2.55,0,1,0-2.54,2.7A2.52,2.52,0,0,0,233.65,253.67Z" transform="translate(-218.9 -218.17)"/><path class="cls-1" d="M242.52,258.33L241,255.2h-1.23v3.14h-2.41V249H242a3,3,0,0,1,3.25,3.11,2.83,2.83,0,0,1-1.86,2.8l1.9,3.43h-2.76Zm0.27-6.25a1,1,0,0,0-1.16-1h-1.91v2h1.91A1,1,0,0,0,242.79,252.09Z" transform="translate(-218.9 -218.17)"/><path class="cls-1" d="M252.92,258.33l-4-5.41v5.41h-2.41V249H249l3.78,5.14V249h2.42v9.34h-2.33Z" transform="translate(-218.9 -218.17)"/><path class="cls-1" d="M256.92,258.33V249h6.85v2.1h-4.44v1.46h4.34v2.1h-4.34v1.58h4.44v2.1h-6.85Z" transform="translate(-218.9 -218.17)"/><path class="cls-1" d="M267.72,258.33v-3.77L264.18,249h2.72l2,3.45,2-3.45h2.73l-3.53,5.58v3.77h-2.41Z" transform="translate(-218.9 -218.17)"/><path class="cls-2" d="M309.92,226.19c0.49,6-3.89,8.79-8.36,11.27,1.09,1.25,2.16,2.39,3,3.3,1,1.09,1.9,2.06,2.91,3.08a30.48,30.48,0,0,0,2.59-7.11l7.85,0.12c-0.87,6.15-3.34,9.06-5.28,12,1.93,1.86,3.93,3.71,6.06,5.63a21.17,21.17,0,0,0-19-35.93C304.9,218.59,309.51,221.26,309.92,226.19Z" transform="translate(-218.9 -218.17)"/><path class="cls-2" d="M297.22,252.68c1.43-.12,3.69-1.44,4.95-2.31-1.63-1.55-3.07-2.95-4-4-1.2-1.3-2.54-2.76-3.76-4.23-1.22,1.27-3.53,3.52-3.37,5.49A5.77,5.77,0,0,0,297.22,252.68Z" transform="translate(-218.9 -218.17)"/><path class="cls-2" d="M290.67,237a19,19,0,0,1-3-7.92,8.42,8.42,0,0,1,.63-4,21.17,21.17,0,0,0-4.64,20.2C284.52,241.48,287.41,239,290.67,237Z" transform="translate(-218.9 -218.17)"/><path class="cls-2" d="M298.12,232.91c2.64-1.57,4.53-3.18,4.33-5.56a2.61,2.61,0,0,0-3-2.43,3.21,3.21,0,0,0-3.05,3.58A10.81,10.81,0,0,0,298.12,232.91Z" transform="translate(-218.9 -218.17)"/><path class="cls-2" d="M309.67,257.2L307.17,255a17.65,17.65,0,0,1-9.72,3.92c-0.43,0-.85.06-1.27,0.07a21.15,21.15,0,0,0,20-2.35Z" transform="translate(-218.9 -218.17)"/></svg>