<?xml version="1.0" encoding="utf-8"?>
<!-- Generator: Adobe Illustrator 20.0.0, SVG Export Plug-In . SVG Version: 6.00 Build 0)  -->
<svg version="1.1" id="Слой_1" xmlns="http://www.w3.org/2000/svg" xmlns:xlink="http://www.w3.org/1999/xlink" x="0px" y="0px"
	 viewBox="0 0 121.5 47" style="enable-background:new 0 0 121.5 47;" xml:space="preserve">
<style type="text/css">
	.st0{fill:#068EDC;}
	.st1{fill:#FFCC00;}
</style>
<path class="st0" d="M21.9,11.6l1.3-1.8c0.7,0.7,1.7,1.2,3,1.2c0.8,0,1.3-0.3,1.3-0.8c0-1.3-5.3-0.3-5.3-3.9c0-1.6,1.3-3,3.7-3
	c1.5,0,2.8,0.4,3.8,1.3l-1.3,1.7c-0.8-0.6-1.8-1-2.7-1c-0.7,0-1,0.3-1,0.7c0,1.2,5.3,0.3,5.3,3.8c0,1.9-1.4,3.1-3.9,3.1
	C24.2,13.1,22.9,12.5,21.9,11.6z"/>
<path class="st0" d="M33.2,12.9V5.7h-2.6V3.6h7.6v2.1h-2.6v7.2H33.2z"/>
<path class="st0" d="M39.3,9.1V3.6h2.5v5.5c0,1.1,0.7,1.9,2,1.9c1.3,0,2-0.8,2-1.9V3.6h2.4v5.5c0,2.3-1.4,4-4.4,4
	C40.7,13.1,39.3,11.4,39.3,9.1z"/>
<path class="st0" d="M21.4,38v-5.6h2.5v5.5c0,1.1,0.7,1.9,2,1.9c1.3,0,2-0.8,2-1.9v-5.5h2.4V38c0,2.3-1.4,4-4.4,4
	C22.8,41.9,21.4,40.3,21.4,38z"/>
<path class="st0" d="M49.8,12.9V3.6h3.9c2.9,0,5.1,1.8,5.1,4.7c0,2.9-2.1,4.7-5,4.7H49.8z M56.3,8.2c0-1.4-0.9-2.6-2.6-2.6h-1.5v5.1
	h1.5C55.4,10.8,56.3,9.6,56.3,8.2z"/>
<path class="st0" d="M62.6,12.9V9.2L59,3.6h2.7l2,3.4l2-3.4h2.7L65,9.2v3.8H62.6z"/>
<path class="st0" d="M45.2,27.3L44.8,26h-3.7l-0.5,1.3h-2.7l3.5-9.3h3l3.5,9.3H45.2z M42.9,20.4l-1.2,3.5h2.4L42.9,20.4z"/>
<path class="st0" d="M55,27.3l-4-5.4v5.4h-2.4V18h2.5l3.8,5.1V18h2.4v9.3H55z"/>
<path class="st0" d="M59,27.3V18h3.9c2.9,0,5.1,1.8,5.1,4.7c0,2.9-2.1,4.7-5,4.7H59z M65.5,22.7c0-1.4-0.9-2.6-2.6-2.6h-1.5v5.1h1.5
	C64.6,25.2,65.5,24.1,65.5,22.7z"/>
<path class="st0" d="M2.7,41.1l1-1.8c0.3,0.3,0.8,0.5,1.3,0.5c0.8,0,1.2-0.5,1.2-1.3v-6.1h2.4v6.1c0,2.3-1.4,3.4-3.4,3.4
	C4.4,41.9,3.4,41.7,2.7,41.1z"/>
<path class="st0" d="M9.9,37.1c0-2.8,2.1-4.8,5-4.8c2.9,0,5,2,5,4.8c0,2.8-2.1,4.8-5,4.8C12.1,41.9,9.9,39.9,9.9,37.1z M17.5,37.1
	c0-1.5-1-2.7-2.5-2.7c-1.6,0-2.5,1.2-2.5,2.7c0,1.5,1,2.7,2.5,2.7C16.5,39.8,17.5,38.6,17.5,37.1z"/>
<path class="st0" d="M37.4,41.8l-1.6-3.1h-1.2v3.1h-2.4v-9.3h4.7c2.1,0,3.2,1.4,3.2,3.1c0,1.6-1,2.5-1.9,2.8l1.9,3.4H37.4z
	 M37.6,35.5c0-0.6-0.5-1-1.2-1h-1.9v2h1.9C37.1,36.5,37.6,36.2,37.6,35.5z"/>
<path class="st0" d="M47.8,41.8l-4-5.4v5.4h-2.4v-9.3h2.5l3.8,5.1v-5.1h2.4v9.3H47.8z"/>
<path class="st0" d="M51.8,41.8v-9.3h6.8v2.1h-4.4V36h4.3v2.1h-4.3v1.6h4.4v2.1H51.8z"/>
<path class="st0" d="M62.6,41.8V38L59,32.4h2.7l2,3.4l2-3.4h2.7L65,38v3.8H62.6z"/>
<g>
	<path class="st1" d="M104.8,9.6c0.5,6-3.9,8.8-8.4,11.3c1.1,1.3,2.2,2.4,3,3.3c1,1.1,1.9,2.1,2.9,3.1c1.2-2.3,2.1-4.8,2.6-7.1
		l7.9,0.1c-0.9,6.1-3.3,9.1-5.3,12c1.9,1.9,3.9,3.7,6.1,5.6c4-3.8,6.4-9.2,6.4-15.2c0-11.7-9.5-21.2-21.2-21.2
		c-1.5,0-2.9,0.1-4.2,0.4C99.7,2,104.4,4.7,104.8,9.6z"/>
	<path class="st1" d="M92.1,36.1c1.4-0.1,3.7-1.4,4.9-2.3c-1.6-1.6-3.1-2.9-4-4c-1.2-1.3-2.5-2.8-3.8-4.2c-1.2,1.3-3.5,3.5-3.4,5.5
		C86.2,34.3,89.4,36.3,92.1,36.1z"/>
	<path class="st1" d="M85.5,20.4c-1.6-2.7-2.8-5.4-3-7.9c-0.1-1.4,0.1-2.7,0.6-4c-3.4,3.8-5.5,8.8-5.5,14.2c0,2.1,0.3,4.1,0.9,6
		C79.4,24.9,82.2,22.4,85.5,20.4z"/>
	<path class="st1" d="M93,16.3c2.6-1.6,4.5-3.2,4.3-5.6c-0.1-1.6-1.4-2.6-3-2.4c-1.9,0.2-3.2,1.7-3.1,3.6C91.4,13.3,92,14.8,93,16.3
		z"/>
	<path class="st1" d="M104.5,40.6l-2.5-2.2c-2.7,2.2-5.9,3.6-9.7,3.9c-0.4,0-0.8,0.1-1.3,0.1c2.4,1,5.1,1.5,7.8,1.5
		c4.5,0,8.7-1.4,12.2-3.8L104.5,40.6z"/>
</g>
</svg>
